
<svg width="50" height="50" viewBox="0 0 50 50" fill="none" xmlns="http://www.w3.org/2000/svg">
<g clip-path="url(#clip0_1_36460)">
<rect width="50" height="50" fill="#FF2410"/>
<path d="M17.1637 33.0311H16.6581L16.5589 33.5269L15.4885 38.879L15.3409 39.6167H16.0933H26.7978C31.5279 39.6167 36.0946 35.8 37.0367 31.0929C37.5121 28.7174 36.982 26.521 35.6948 24.9122C34.4066 23.302 32.3968 22.3269 30.0092 22.3269H27.3331C26.7698 22.3269 26.3434 22.1018 26.0808 21.7734C25.8171 21.4438 25.6821 20.9639 25.797 20.3884C26.0354 19.1938 27.231 18.2084 28.4035 18.2084H39.1081H39.6137L39.7129 17.7126L40.7833 12.3605L40.9309 11.6227H40.1785H29.474C24.7439 11.6227 20.1772 15.4395 19.2351 20.1466C18.7596 22.5221 19.2898 24.7184 20.577 26.3273C21.8652 27.9374 23.875 28.9126 26.2626 28.9126H28.9387C29.502 28.9126 29.9284 29.1377 30.191 29.466C30.4547 29.7957 30.5897 30.2755 30.4748 30.8511C30.2364 32.0456 29.0408 33.0311 27.8683 33.0311H17.1637Z" fill="white" stroke="white" stroke-width="1.23357"/>
<ellipse cx="13.0207" cy="14.911" rx="3.91113" ry="3.91099" fill="white"/>
</g>
<defs>
<clipPath id="clip0_1_36460">
<rect width="50" height="50" rx="11" fill="white"/>
</clipPath>
</defs>
</svg>
