<svg width="130" height="32" viewBox="0 0 130 32" fill="none" xmlns="http://www.w3.org/2000/svg">
<path d="M9.6363 11.412C10.6171 11.412 11.4123 10.6169 11.4123 9.63606C11.4123 8.65523 10.6171 7.86011 9.6363 7.86011C8.65547 7.86011 7.86035 8.65523 7.86035 9.63606C7.86035 10.6169 8.65547 11.412 9.6363 11.412Z" fill="#FF0000"/>
<g clip-path="url(#clip0_1242_15021)">
<path d="M63.3322 8.00635H57.7795C56.0768 8.00635 54.6699 9.26488 54.4478 10.9679L52.856 23.9984H56.1137L56.7059 19.2229H58.9805L61.5183 23.9984H65.2942L62.196 18.1354L65.6643 13.9295C67.9224 11.19 66.6639 8.00668 63.3322 8.00668V8.00635ZM62.5178 12.5966L60.0745 15.6322C59.9264 15.8175 59.6671 15.9283 59.4451 15.9283H57.1129L57.6683 11.264H61.9993C62.7028 11.264 62.9989 11.9675 62.5175 12.5966H62.5178Z" fill="black"/>
<path d="M91.8522 8.00635H86.2995C84.5968 8.00635 83.1899 9.26488 82.9678 10.9679L81.376 23.9984H84.6337L85.2259 19.2229H87.5005L90.0383 23.9984H93.8142L90.7161 18.1354L94.1843 13.9295C96.4425 11.19 95.1839 8.00668 91.8522 8.00668V8.00635ZM91.0379 12.5966L88.5945 15.6322C88.4464 15.8175 88.1872 15.9283 87.9651 15.9283H85.6329L86.1883 11.264H90.5193C91.2228 11.264 91.5189 11.9675 91.0375 12.5966H91.0379Z" fill="#FF2410"/>
<path d="M35.3092 8.00635H29.7566C28.0539 8.00635 26.6469 9.26488 26.4248 10.9679L24.833 23.9984H28.0907L28.683 19.2229H32.0147C32.829 19.2229 33.6434 18.8527 34.1988 18.1493L37.6786 13.9292C40.0847 11.0048 38.641 8.00635 35.3092 8.00635ZM34.5317 12.5966L32.0884 15.6322C31.9403 15.8175 31.681 15.9283 31.459 15.9283H29.0896L29.645 11.264H34.0132C34.7167 11.264 35.0128 11.9675 34.5314 12.5966H34.5317Z" fill="black"/>
<path d="M46.748 7.8584C43.3422 7.8584 40.307 10.6719 39.8624 14.2254L39.4183 17.742C38.9741 21.2959 41.3431 24.1462 44.7488 24.1462C48.1546 24.1462 51.1899 21.2959 51.6344 17.742L52.0786 14.2254C52.5227 10.6719 50.1534 7.8584 46.748 7.8584ZM48.9689 14.2254L48.5247 17.7792C48.3026 19.4819 46.822 20.8889 45.1562 20.8889C43.4903 20.8889 42.3058 19.4823 42.5279 17.7792L42.9721 14.2254C43.1942 12.4855 44.6748 11.1158 46.3407 11.1158C48.0065 11.1158 49.191 12.4855 48.9689 14.2254Z" fill="black"/>
<path d="M12.8063 12.8187C12.473 15.595 14.25 17.631 17.0264 17.631H18.8031C19.6915 17.631 20.2837 18.2973 20.1728 19.1857C20.0616 20.0741 19.3213 20.7404 18.433 20.7404H11.8439L11.4365 23.9984H18.1C20.8395 23.9984 23.0976 21.9624 23.4305 19.2229C23.7639 16.4466 21.9868 14.3734 19.2104 14.3734H17.4337C16.5453 14.3734 15.9531 13.7071 16.064 12.8187C16.1752 11.9303 16.9155 11.264 17.8039 11.264H24.393L24.8003 8.00635H18.2109C15.4345 8.00635 13.1392 10.0424 12.8063 12.8187Z" fill="black"/>
<path d="M112.899 14.3737C113.121 12.6338 114.602 11.264 116.268 11.264H120.975L121.382 8.00635H116.675C113.269 8.00635 110.234 10.8199 109.79 14.3734L109.382 17.5939C108.938 21.1477 111.27 23.9609 114.676 23.998H119.408L119.815 20.7404H115.083C113.418 20.7035 112.27 19.3338 112.492 17.6307L112.899 14.373V14.3737Z" fill="#FF2410"/>
<path d="M97.3148 10.968L96.0931 21.0369C95.8711 22.7396 96.9815 23.9985 98.6846 23.9985H106.569L106.977 20.7408H99.4249L99.795 17.6311H106.125L106.533 14.3734H100.202L100.573 11.2638H108.124L108.532 8.0061H100.647C98.9442 8.0061 97.5373 9.26463 97.3152 10.9677L97.3148 10.968Z" fill="#FF2410"/>
<path d="M68.6626 11.264H73.1788L71.6242 23.9984H74.8819L76.4365 11.264H80.9527L81.3601 8.00635H69.0699L68.6626 11.264Z" fill="black"/>
</g>
<defs>
<clipPath id="clip0_1242_15021">
<rect width="109.946" height="16.2882" fill="white" transform="translate(11.4365 7.8584)"/>
</clipPath>
</defs>
</svg>
